<svg width="141" height="14" viewBox="0 0 141 14" fill="none" xmlns="http://www.w3.org/2000/svg">
<path d="M0.0780235 6.898H3.48002V3.19H4.92002V6.898H8.32202V8.32H4.92002V12.046H3.48002V8.32H0.0780235V6.898ZM16.3842 13C16.4562 12.04 16.6242 11.032 16.8882 9.976C17.1642 8.908 17.5002 7.876 17.8962 6.88C18.2922 5.872 18.7242 4.942 19.1922 4.09C19.6722 3.226 20.1402 2.524 20.5962 1.984H14.5302V0.526H22.4682V1.912C22.0722 2.368 21.6342 2.998 21.1542 3.802C20.6742 4.594 20.2182 5.488 19.7862 6.484C19.3662 7.468 19.0002 8.524 18.6882 9.652C18.3882 10.768 18.2022 11.884 18.1302 13H16.3842ZM36.9384 9.76C36.9384 10.264 36.8484 10.732 36.6684 11.164C36.5004 11.584 36.2424 11.956 35.8944 12.28C35.5584 12.592 35.1324 12.832 34.6164 13C34.1004 13.18 33.5064 13.27 32.8344 13.27C32.0544 13.27 31.4004 13.162 30.8724 12.946C30.3564 12.718 29.9424 12.436 29.6304 12.1C29.3184 11.764 29.0964 11.398 28.9644 11.002C28.8324 10.594 28.7664 10.21 28.7664 9.85C28.7664 9.502 28.8204 9.172 28.9284 8.86C29.0484 8.536 29.1984 8.236 29.3784 7.96C29.5704 7.684 29.7864 7.438 30.0264 7.222C30.2784 6.994 30.5424 6.796 30.8184 6.628C29.6424 5.956 29.0544 4.966 29.0544 3.658C29.0544 3.202 29.1444 2.77 29.3244 2.362C29.5044 1.942 29.7564 1.576 30.0804 1.264C30.4164 0.952 30.8184 0.705999 31.2864 0.526C31.7544 0.333999 32.2764 0.237999 32.8524 0.237999C33.5244 0.237999 34.1004 0.339999 34.5804 0.543999C35.0604 0.748 35.4504 1.012 35.7504 1.336C36.0624 1.648 36.2844 1.996 36.4164 2.38C36.5604 2.764 36.6324 3.136 36.6324 3.496C36.6324 3.844 36.5784 4.174 36.4704 4.486C36.3744 4.786 36.2364 5.068 36.0564 5.332C35.8884 5.596 35.6904 5.83 35.4624 6.034C35.2464 6.238 35.0184 6.418 34.7784 6.574C36.1944 7.246 36.9144 8.308 36.9384 9.76ZM30.4584 9.868C30.4584 10.084 30.4944 10.312 30.5664 10.552C30.6504 10.78 30.7884 10.996 30.9804 11.2C31.1724 11.392 31.4184 11.554 31.7184 11.686C32.0184 11.818 32.3964 11.884 32.8524 11.884C33.2604 11.884 33.6144 11.824 33.9144 11.704C34.2264 11.584 34.4784 11.434 34.6704 11.254C34.8624 11.062 35.0064 10.846 35.1024 10.606C35.1984 10.366 35.2464 10.12 35.2464 9.868C35.2464 9.484 35.1744 9.148 35.0304 8.86C34.8864 8.572 34.6764 8.32 34.4004 8.104C34.1364 7.888 33.8124 7.708 33.4284 7.564C33.0564 7.408 32.6304 7.276 32.1504 7.168C31.6104 7.468 31.1904 7.84 30.8904 8.284C30.6024 8.728 30.4584 9.256 30.4584 9.868ZM34.9584 3.478C34.9584 3.298 34.9164 3.1 34.8324 2.884C34.7604 2.668 34.6404 2.47 34.4724 2.29C34.3044 2.098 34.0884 1.942 33.8244 1.822C33.5604 1.69 33.2364 1.624 32.8524 1.624C32.4684 1.624 32.1384 1.684 31.8624 1.804C31.5984 1.924 31.3824 2.08 31.2144 2.272C31.0464 2.452 30.9204 2.656 30.8364 2.884C30.7644 3.1 30.7284 3.316 30.7284 3.532C30.7284 3.796 30.7764 4.06 30.8724 4.324C30.9684 4.588 31.1184 4.834 31.3224 5.062C31.5264 5.29 31.7904 5.494 32.1144 5.674C32.4504 5.854 32.8464 5.998 33.3024 6.106C33.8064 5.806 34.2084 5.458 34.5084 5.062C34.8084 4.654 34.9584 4.126 34.9584 3.478ZM46.9545 5.512C46.9545 7.984 46.3365 9.856 45.1005 11.128C43.8765 12.388 42.0525 13.024 39.6285 13.036L39.5745 11.632C40.3305 11.632 41.0085 11.56 41.6085 11.416C42.2205 11.272 42.7545 11.044 43.2105 10.732C43.6665 10.408 44.0445 9.994 44.3445 9.49C44.6565 8.986 44.8845 8.368 45.0285 7.636C44.7165 7.78 44.3625 7.9 43.9665 7.996C43.5705 8.08 43.1625 8.122 42.7425 8.122C42.0345 8.122 41.4345 8.02 40.9425 7.816C40.4505 7.6 40.0485 7.318 39.7365 6.97C39.4245 6.61 39.1965 6.202 39.0525 5.746C38.9205 5.278 38.8545 4.792 38.8545 4.288C38.8545 3.844 38.9325 3.382 39.0885 2.902C39.2445 2.422 39.4785 1.984 39.7905 1.588C40.1145 1.192 40.5225 0.867999 41.0145 0.616C41.5065 0.363999 42.0885 0.237999 42.7605 0.237999C43.4445 0.237999 44.0445 0.357999 44.5605 0.598C45.0885 0.838 45.5265 1.186 45.8745 1.642C46.2345 2.098 46.5045 2.656 46.6845 3.316C46.8645 3.964 46.9545 4.696 46.9545 5.512ZM42.9225 6.754C43.3425 6.754 43.7385 6.718 44.1105 6.646C44.4825 6.562 44.8425 6.442 45.1905 6.286C45.2025 6.154 45.2085 6.028 45.2085 5.908C45.2085 5.776 45.2085 5.644 45.2085 5.512C45.2085 4.996 45.1725 4.504 45.1005 4.036C45.0285 3.556 44.8965 3.142 44.7045 2.794C44.5245 2.434 44.2785 2.152 43.9665 1.948C43.6545 1.732 43.2585 1.624 42.7785 1.624C42.3825 1.624 42.0465 1.708 41.7705 1.876C41.4945 2.044 41.2665 2.26 41.0865 2.524C40.9065 2.776 40.7745 3.058 40.6905 3.37C40.6185 3.67 40.5825 3.964 40.5825 4.252C40.5825 5.068 40.7745 5.692 41.1585 6.124C41.5545 6.544 42.1425 6.754 42.9225 6.754ZM52.1647 11.776C53.2327 11.776 53.9947 11.566 54.4507 11.146C54.9187 10.726 55.1527 10.162 55.1527 9.454C55.1527 8.998 55.0567 8.614 54.8647 8.302C54.6727 7.99 54.4207 7.744 54.1087 7.564C53.7967 7.372 53.4307 7.24 53.0107 7.168C52.6027 7.084 52.1827 7.042 51.7507 7.042H51.3187V5.674H51.9127C52.2127 5.674 52.5187 5.644 52.8307 5.584C53.1547 5.524 53.4487 5.416 53.7127 5.26C53.9767 5.104 54.1927 4.894 54.3607 4.63C54.5287 4.354 54.6127 4.012 54.6127 3.604C54.6127 3.268 54.5527 2.98 54.4327 2.74C54.3127 2.5 54.1507 2.302 53.9467 2.146C53.7547 1.99 53.5267 1.882 53.2627 1.822C53.0107 1.75 52.7407 1.714 52.4527 1.714C51.8767 1.714 51.3847 1.798 50.9767 1.966C50.5807 2.134 50.2447 2.308 49.9687 2.488L49.3207 1.21C49.4647 1.114 49.6447 1.012 49.8607 0.903999C50.0887 0.783999 50.3407 0.675999 50.6167 0.579999C50.8927 0.483999 51.1867 0.406 51.4987 0.346C51.8227 0.273999 52.1587 0.237999 52.5067 0.237999C53.1667 0.237999 53.7367 0.321999 54.2167 0.489999C54.6967 0.645999 55.0927 0.873999 55.4047 1.174C55.7167 1.462 55.9507 1.81 56.1067 2.218C56.2627 2.614 56.3407 3.046 56.3407 3.514C56.3407 4.162 56.1547 4.72 55.7827 5.188C55.4107 5.644 54.9607 5.992 54.4327 6.232C54.7567 6.328 55.0687 6.466 55.3687 6.646C55.6687 6.826 55.9267 7.054 56.1427 7.33C56.3707 7.606 56.5507 7.924 56.6827 8.284C56.8267 8.644 56.8987 9.046 56.8987 9.49C56.8987 10.03 56.8027 10.534 56.6107 11.002C56.4307 11.458 56.1427 11.854 55.7467 12.19C55.3627 12.526 54.8767 12.79 54.2887 12.982C53.7007 13.174 53.0047 13.27 52.2007 13.27C51.8887 13.27 51.5647 13.246 51.2287 13.198C50.9047 13.15 50.5987 13.09 50.3107 13.018C50.0227 12.946 49.7707 12.874 49.5547 12.802C49.3387 12.73 49.1827 12.67 49.0867 12.622L49.4107 11.164C49.6147 11.26 49.9507 11.386 50.4187 11.542C50.8987 11.698 51.4807 11.776 52.1647 11.776ZM66.0049 5.332C67.8169 5.404 69.1429 5.8 69.9829 6.52C70.8349 7.24 71.2609 8.218 71.2609 9.454C71.2609 10.006 71.1649 10.516 70.9729 10.984C70.7929 11.452 70.5109 11.854 70.1269 12.19C69.7549 12.526 69.2809 12.79 68.7049 12.982C68.1289 13.174 67.4449 13.27 66.6529 13.27C66.3409 13.27 66.0229 13.246 65.6989 13.198C65.3749 13.15 65.0749 13.09 64.7989 13.018C64.5229 12.946 64.2769 12.874 64.0609 12.802C63.8449 12.73 63.6889 12.67 63.5929 12.622L63.9169 11.164C64.1209 11.26 64.4509 11.386 64.9069 11.542C65.3749 11.698 65.9449 11.776 66.6169 11.776C67.1569 11.776 67.6069 11.716 67.9669 11.596C68.3389 11.476 68.6389 11.314 68.8669 11.11C69.0949 10.906 69.2569 10.672 69.3529 10.408C69.4609 10.132 69.5149 9.844 69.5149 9.544C69.5149 9.088 69.4369 8.686 69.2809 8.338C69.1249 7.978 68.8489 7.678 68.4529 7.438C68.0569 7.198 67.5289 7.018 66.8689 6.898C66.2089 6.766 65.3749 6.7 64.3669 6.7C64.4389 6.112 64.4929 5.56 64.5289 5.044C64.5769 4.528 64.6189 4.024 64.6549 3.532C64.6909 3.04 64.7209 2.554 64.7449 2.074C64.7689 1.582 64.7929 1.066 64.8169 0.526H70.8289V1.948H66.2749C66.2629 2.128 66.2449 2.374 66.2209 2.686C66.1969 2.986 66.1729 3.304 66.1489 3.64C66.1249 3.964 66.1009 4.282 66.0769 4.594C66.0529 4.906 66.0289 5.152 66.0049 5.332ZM73.717 7.996C73.717 6.784 73.885 5.716 74.221 4.792C74.557 3.856 75.031 3.07 75.643 2.434C76.267 1.798 77.017 1.318 77.893 0.993999C78.781 0.657999 79.777 0.483999 80.881 0.471999L81.007 1.876C80.299 1.888 79.651 1.966 79.063 2.11C78.487 2.254 77.971 2.482 77.515 2.794C77.059 3.106 76.675 3.514 76.363 4.018C76.051 4.51 75.817 5.122 75.661 5.854C75.973 5.71 76.321 5.59 76.705 5.494C77.101 5.398 77.509 5.35 77.929 5.35C78.637 5.35 79.237 5.458 79.729 5.674C80.221 5.89 80.623 6.178 80.935 6.538C81.247 6.886 81.469 7.294 81.601 7.762C81.745 8.218 81.817 8.698 81.817 9.202C81.817 9.658 81.739 10.126 81.583 10.606C81.427 11.086 81.187 11.524 80.863 11.92C80.551 12.316 80.149 12.64 79.657 12.892C79.165 13.144 78.583 13.27 77.911 13.27C76.543 13.27 75.499 12.802 74.779 11.866C74.071 10.93 73.717 9.64 73.717 7.996ZM77.749 6.718C77.329 6.718 76.939 6.76 76.579 6.844C76.219 6.916 75.859 7.03 75.499 7.186C75.487 7.318 75.475 7.456 75.463 7.6C75.463 7.732 75.463 7.864 75.463 7.996C75.463 8.524 75.499 9.022 75.571 9.49C75.643 9.958 75.769 10.372 75.949 10.732C76.141 11.08 76.393 11.362 76.705 11.578C77.017 11.782 77.413 11.884 77.893 11.884C78.289 11.884 78.625 11.8 78.901 11.632C79.177 11.464 79.405 11.248 79.585 10.984C79.765 10.72 79.891 10.438 79.963 10.138C80.047 9.826 80.089 9.526 80.089 9.238C80.089 8.422 79.891 7.798 79.495 7.366C79.111 6.934 78.529 6.718 77.749 6.718ZM85.6772 13C85.7492 12.04 85.9172 11.032 86.1812 9.976C86.4572 8.908 86.7932 7.876 87.1892 6.88C87.5852 5.872 88.0172 4.942 88.4852 4.09C88.9652 3.226 89.4332 2.524 89.8892 1.984H83.8232V0.526H91.7612V1.912C91.3652 2.368 90.9272 2.998 90.4472 3.802C89.9672 4.594 89.5112 5.488 89.0792 6.484C88.6592 7.468 88.2932 8.524 87.9812 9.652C87.6812 10.768 87.4952 11.884 87.4232 13H85.6772ZM100.003 13C100.075 12.04 100.243 11.032 100.507 9.976C100.783 8.908 101.119 7.876 101.515 6.88C101.911 5.872 102.343 4.942 102.811 4.09C103.291 3.226 103.759 2.524 104.215 1.984H98.1493V0.526H106.087V1.912C105.691 2.368 105.253 2.998 104.773 3.802C104.293 4.594 103.837 5.488 103.405 6.484C102.985 7.468 102.619 8.524 102.307 9.652C102.007 10.768 101.821 11.884 101.749 13H100.003ZM116.391 9.76C116.391 10.264 116.301 10.732 116.121 11.164C115.953 11.584 115.695 11.956 115.347 12.28C115.011 12.592 114.585 12.832 114.069 13C113.553 13.18 112.959 13.27 112.287 13.27C111.507 13.27 110.853 13.162 110.325 12.946C109.809 12.718 109.395 12.436 109.083 12.1C108.771 11.764 108.549 11.398 108.417 11.002C108.285 10.594 108.219 10.21 108.219 9.85C108.219 9.502 108.273 9.172 108.381 8.86C108.501 8.536 108.651 8.236 108.831 7.96C109.023 7.684 109.239 7.438 109.479 7.222C109.731 6.994 109.995 6.796 110.271 6.628C109.095 5.956 108.507 4.966 108.507 3.658C108.507 3.202 108.597 2.77 108.777 2.362C108.957 1.942 109.209 1.576 109.533 1.264C109.869 0.952 110.271 0.705999 110.739 0.526C111.207 0.333999 111.729 0.237999 112.305 0.237999C112.977 0.237999 113.553 0.339999 114.033 0.543999C114.513 0.748 114.903 1.012 115.203 1.336C115.515 1.648 115.737 1.996 115.869 2.38C116.013 2.764 116.085 3.136 116.085 3.496C116.085 3.844 116.031 4.174 115.923 4.486C115.827 4.786 115.689 5.068 115.509 5.332C115.341 5.596 115.143 5.83 114.915 6.034C114.699 6.238 114.471 6.418 114.231 6.574C115.647 7.246 116.367 8.308 116.391 9.76ZM109.911 9.868C109.911 10.084 109.947 10.312 110.019 10.552C110.103 10.78 110.241 10.996 110.433 11.2C110.625 11.392 110.871 11.554 111.171 11.686C111.471 11.818 111.849 11.884 112.305 11.884C112.713 11.884 113.067 11.824 113.367 11.704C113.679 11.584 113.931 11.434 114.123 11.254C114.315 11.062 114.459 10.846 114.555 10.606C114.651 10.366 114.699 10.12 114.699 9.868C114.699 9.484 114.627 9.148 114.483 8.86C114.339 8.572 114.129 8.32 113.853 8.104C113.589 7.888 113.265 7.708 112.881 7.564C112.509 7.408 112.083 7.276 111.603 7.168C111.063 7.468 110.643 7.84 110.343 8.284C110.055 8.728 109.911 9.256 109.911 9.868ZM114.411 3.478C114.411 3.298 114.369 3.1 114.285 2.884C114.213 2.668 114.093 2.47 113.925 2.29C113.757 2.098 113.541 1.942 113.277 1.822C113.013 1.69 112.689 1.624 112.305 1.624C111.921 1.624 111.591 1.684 111.315 1.804C111.051 1.924 110.835 2.08 110.667 2.272C110.499 2.452 110.373 2.656 110.289 2.884C110.217 3.1 110.181 3.316 110.181 3.532C110.181 3.796 110.229 4.06 110.325 4.324C110.421 4.588 110.571 4.834 110.775 5.062C110.979 5.29 111.243 5.494 111.567 5.674C111.903 5.854 112.299 5.998 112.755 6.106C113.259 5.806 113.661 5.458 113.961 5.062C114.261 4.654 114.411 4.126 114.411 3.478ZM122.69 7.996C122.69 6.784 122.858 5.716 123.194 4.792C123.53 3.856 124.004 3.07 124.616 2.434C125.24 1.798 125.99 1.318 126.866 0.993999C127.754 0.657999 128.75 0.483999 129.854 0.471999L129.98 1.876C129.272 1.888 128.624 1.966 128.036 2.11C127.46 2.254 126.944 2.482 126.488 2.794C126.032 3.106 125.648 3.514 125.336 4.018C125.024 4.51 124.79 5.122 124.634 5.854C124.946 5.71 125.294 5.59 125.678 5.494C126.074 5.398 126.482 5.35 126.902 5.35C127.61 5.35 128.21 5.458 128.702 5.674C129.194 5.89 129.596 6.178 129.908 6.538C130.22 6.886 130.442 7.294 130.574 7.762C130.718 8.218 130.79 8.698 130.79 9.202C130.79 9.658 130.712 10.126 130.556 10.606C130.4 11.086 130.16 11.524 129.836 11.92C129.524 12.316 129.122 12.64 128.63 12.892C128.138 13.144 127.556 13.27 126.884 13.27C125.516 13.27 124.472 12.802 123.752 11.866C123.044 10.93 122.69 9.64 122.69 7.996ZM126.722 6.718C126.302 6.718 125.912 6.76 125.552 6.844C125.192 6.916 124.832 7.03 124.472 7.186C124.46 7.318 124.448 7.456 124.436 7.6C124.436 7.732 124.436 7.864 124.436 7.996C124.436 8.524 124.472 9.022 124.544 9.49C124.616 9.958 124.742 10.372 124.922 10.732C125.114 11.08 125.366 11.362 125.678 11.578C125.99 11.782 126.386 11.884 126.866 11.884C127.262 11.884 127.598 11.8 127.874 11.632C128.15 11.464 128.378 11.248 128.558 10.984C128.738 10.72 128.864 10.438 128.936 10.138C129.02 9.826 129.062 9.526 129.062 9.238C129.062 8.422 128.864 7.798 128.468 7.366C128.084 6.934 127.502 6.718 126.722 6.718ZM134.65 13C134.722 12.04 134.89 11.032 135.154 9.976C135.43 8.908 135.766 7.876 136.162 6.88C136.558 5.872 136.99 4.942 137.458 4.09C137.938 3.226 138.406 2.524 138.862 1.984H132.796V0.526H140.734V1.912C140.338 2.368 139.9 2.998 139.42 3.802C138.94 4.594 138.484 5.488 138.052 6.484C137.632 7.468 137.266 8.524 136.954 9.652C136.654 10.768 136.468 11.884 136.396 13H134.65Z" fill="white"/>
</svg>
