<svg width="39" height="39" viewBox="0 0 39 39" fill="none" xmlns="http://www.w3.org/2000/svg">
<g clip-path="url(#clip0)">
<path d="M34.7145 23.3619L34.6934 23.3422C34.3604 23.0342 33.3404 22.0397 32.9965 21.605C32.5927 21.0627 32.6858 20.7073 32.9884 20.1749C33.3708 19.502 34.137 18.4699 34.9478 17.3769C37.5448 13.8775 39.2214 11.4549 38.8763 9.73412L38.6903 8.81499L29.0995 8.81916C29.0659 8.90979 28.5654 11.1127 26.4534 14.8637C24.9219 17.5835 23.9174 18.438 23.5636 18.5888L23.5089 18.5721C23.3937 18.4296 23.1926 18.045 23.1099 17.0538C23.0236 16.0154 23.1001 14.7582 23.1741 13.5424C23.2607 12.1168 23.3354 10.8855 23.1566 10.0045L22.8653 8.56933C22.5133 8.51298 21.2246 8.01481 17.6341 7.97695C14.5256 7.94505 13.6125 8.39492 13.1641 8.79143L11.6808 10.1029L13.5556 10.7349C14.2692 10.9755 14.506 11.2531 14.7003 12.6289C14.8271 13.5257 14.8934 15.0328 14.7565 16.3782C14.5599 18.3074 14.0883 18.6663 14.0639 18.6854C13.9826 18.6577 13.2938 18.3557 12.098 15.8225C11.2684 14.0656 10.5412 11.9874 10.0098 10.4699C9.40159 8.73211 9.51109 9.10208 9.20253 8.28104L-0.0761719 8.28074L0.524278 9.83697C3.02754 16.3311 5.3243 21.4026 8.39796 25.0451C11.7939 29.0695 16.0143 31.1767 21.6992 31.1767H22.8418V30.0319C22.8418 28.9616 22.9302 28.191 23.1197 27.6066C23.2354 27.2507 23.3893 26.9564 23.5508 26.6478C23.7907 26.1935 24.0251 25.9988 24.1531 25.9699C24.2691 25.9434 24.4732 26.0286 24.6994 26.1977C25.3486 26.6827 25.864 27.3201 26.4097 27.9951C27.197 28.9691 28.0111 29.9759 29.3027 30.635C30.0085 30.9952 31.3022 31.177 32.0143 31.177C32.2026 31.177 38.9156 31.1767 38.9239 31.1767L38.8748 29.9848C38.8016 28.2026 37.4016 25.9741 34.7145 23.3619ZM32.0586 28.8871H32.0401C31.5492 28.8951 30.6122 28.7339 30.3397 28.5949C29.4809 28.1567 28.8808 27.414 28.1854 26.5542C27.5752 25.7991 26.9441 25.0183 26.0654 24.3621C25.3549 23.8311 24.7095 23.6758 24.1971 23.6758C23.9924 23.6758 23.8085 23.7005 23.6508 23.7363C23.056 23.8705 22.2053 24.2992 21.529 25.5808C21.3383 25.9455 21.122 26.3584 20.9467 26.8986C20.7631 27.4638 20.6489 28.092 20.5944 28.8561C16.3103 28.6122 12.9674 26.9141 10.1431 23.567C7.51723 20.4548 5.45136 16.1018 3.26349 10.5695C3.42179 10.5695 7.38839 10.5701 7.62256 10.5701C7.69427 10.7719 7.77163 10.9931 7.85375 11.2274C8.42653 12.8645 9.21116 15.1061 10.1356 17.0177C11.4594 19.7551 12.6684 20.9759 14.0552 20.9759C14.7476 20.9759 15.3686 20.682 15.8509 20.1254C16.5385 19.3321 16.9379 18.0227 17.0718 16.1221C17.1774 14.6234 17.0792 13.1307 16.9632 12.3082C16.8673 11.6314 16.7308 10.921 16.3975 10.2845C17.8177 10.2204 19.7193 10.3217 20.9241 10.4949C21.0336 11.0924 20.9622 12.2667 20.8931 13.4029C20.7262 16.1475 20.5539 18.9797 22.0039 20.3049C22.2589 20.538 22.5294 20.6629 22.5371 20.668L23.275 20.8949C23.5598 20.8069 25.2091 21.6452 28.3321 16.1844C29.3328 14.4347 30.2644 12.4185 30.7661 11.1016C31.9295 11.0992 35.8931 11.1037 36.3587 11.1043C35.6991 12.5589 34.1358 14.6336 33.114 16.0106C32.2231 17.2109 31.454 18.2475 31.0026 19.0417C30.1641 20.5171 30.3052 21.8322 31.1785 22.9922L31.1921 23.0101C31.6795 23.6317 32.8831 24.7825 33.1327 25.0144C34.9412 26.7737 35.8127 28.0374 36.2275 28.8868H32.0586V28.8871Z" fill="white"/>
</g>
<defs>
<clipPath id="clip0">
<rect width="39" height="39" fill="white"/>
</clipPath>
</defs>
</svg>
